<svg xmlns="http://www.w3.org/2000/svg" width="35" height="35" viewBox="0 0 35 35"><path d="M2,2V37H37V2ZM19.5,30c-2.765,0-5.2-3.29-5.25-5.355,0-.087-.018-.227-.018-.385-.227-3.028,1.75-5.6,4.322-7.647a12.7,12.7,0,0,0,4.5,5.11,3.394,3.394,0,0,1,1.7,3.028A5.265,5.265,0,0,1,19.5,30Zm14,3.5H30V30H26.465a8.715,8.715,0,0,0,1.785-5.25,6.789,6.789,0,0,0-3.238-5.9c-5.163-3.535-3.762-8.1-3.762-8.1C9.472,17,10.715,23.822,10.75,24.75A9.368,9.368,0,0,0,12.9,30H9v3.5H5.5V5.5h28Z" transform="translate(-2 -2)" fill="#b7590b"/></svg>