<svg xmlns="http://www.w3.org/2000/svg" width="35.132" height="35" viewBox="0 0 35.132 35"><g transform="translate(10103.159 -7452.75)"><g transform="translate(-10103.159 7452.75)"><path d="M38.977,20.841l-6.284-6.364a1.67,1.67,0,0,0-2.148-.159,1.511,1.511,0,0,0-.159,2.386l3.659,3.659H15.591a1.591,1.591,0,1,0,0,3.182H34.045L30.386,27.2a1.511,1.511,0,0,0,.159,2.386,1.67,1.67,0,0,0,2.148-.159l6.284-6.364a1.511,1.511,0,0,0,0-2.227Z" transform="translate(-4.335 -4.455)" fill="#b7590b"/><path d="M22.651,33.818H19.469a14.318,14.318,0,0,1,0-28.636h3.182a1.631,1.631,0,0,0,1.591-1.591,1.909,1.909,0,0,0-.159-.716A1.591,1.591,0,0,0,22.651,2H19.31a17.5,17.5,0,0,0,.08,35h3.261a1.591,1.591,0,0,0,1.114-.477l.318-.4a1.909,1.909,0,0,0,.159-.716A1.591,1.591,0,0,0,22.651,33.818Z" transform="translate(-1.85 -2)" fill="#b7590b"/></g></g></svg>